<?xml version="1.0" standalone="no"?><!DOCTYPE svg PUBLIC "-//W3C//DTD SVG 1.1//EN" "http://www.w3.org/Graphics/SVG/1.1/DTD/svg11.dtd"><svg t="1571409199041" class="icon" viewBox="0 0 1024 1024" version="1.1" xmlns="http://www.w3.org/2000/svg" p-id="2346" xmlns:xlink="http://www.w3.org/1999/xlink" width="200" height="200"><defs><style type="text/css"></style></defs><path d="M512 56.6c59.1 0 116.7 11.2 171.2 33.3 56.4 22.9 107.1 56.5 150.5 100 43.4 43.4 77.1 94.1 100 150.5 22.1 54.5 33.3 112.1 33.3 171.2 0 59.1-11.2 116.7-33.3 171.2-22.9 56.4-56.5 107.1-100 150.5-43.4 43.4-94.1 77.1-150.5 100-54.5 22.1-112.1 33.3-171.2 33.3s-116.7-11.2-171.2-33.3c-56.4-22.9-107.1-56.5-150.5-100-43.4-43.4-77.1-94.1-100-150.5C68.2 628.3 57 570.7 57 511.6c0-59.1 11.2-116.7 33.3-171.2 22.9-56.4 56.5-107.1 100-150.5 43.4-43.4 94.1-77.1 150.5-100 54.4-22.1 112-33.3 171.2-33.3m0-40c-126.7 0-253.4 48.3-350 145-193.3 193.3-193.3 506.7 0 700 96.7 96.7 223.3 145 350 145s253.4-48.3 350-145c193.3-193.3 193.3-506.7 0-700-96.7-96.7-223.4-145-350-145z" fill="#999999" p-id="2347"></path><path d="M512 308.7l50.4 155h163l-131.8 95.8 50.4 155-132-95.8-131.8 95.8 50.4-155-131.8-95.8h163l50.2-155m0-40c-17.3 0-32.7 11.2-38 27.6l-41.4 127.3H298.7c-17.3 0-32.7 11.2-38 27.6-5.4 16.5 0.5 34.5 14.5 44.7l108.3 78.7-41.4 127.3c-5.4 16.5 0.5 34.5 14.5 44.7 7 5.1 15.3 7.6 23.5 7.6 8.3 0 16.5-2.5 23.5-7.6L512 668.1l108.3 78.7c7 5.1 15.3 7.6 23.5 7.6s16.5-2.5 23.5-7.6c14-10.2 19.9-28.2 14.5-44.7l-41.4-127.3 107.9-78.4c1.3-0.9 2.5-1.9 3.7-2.9 1.7-1.5 3.2-3.2 4.6-4.9 5.3-6.7 8.5-15.1 8.6-24.3v-1.5c-0.5-21.6-18.2-39-39.9-39H591.4L550 296.3c-5.3-16.4-20.7-27.6-38-27.6z" fill="#999999" p-id="2348"></path></svg>