<?xml version="1.0" standalone="no"?><!DOCTYPE svg PUBLIC "-//W3C//DTD SVG 1.1//EN" "http://www.w3.org/Graphics/SVG/1.1/DTD/svg11.dtd"><svg t="1571894564681" class="icon" viewBox="0 0 1024 1024" version="1.1" xmlns="http://www.w3.org/2000/svg" p-id="1997" xmlns:xlink="http://www.w3.org/1999/xlink" width="200" height="200"><defs><style type="text/css"></style></defs><path d="M246.485 862.799a7.25 7.25 0 0 0-2.66 9.877 7.24 7.24 0 0 0 9.894 2.651l550.873-318.055a7.228 7.228 0 0 0 2.66-9.886c-2-3.456-6.422-4.642-9.877-2.643l-550.89 318.056z" fill="#433F3F" p-id="1998"></path><path d="M253.702 224.25c-3.456-1.999-7.878-0.813-9.877 2.643a7.228 7.228 0 0 0 2.66 9.886l550.873 318.055a7.243 7.243 0 0 0 9.895-2.651c2-3.456 0.813-7.878-2.66-9.877L253.702 224.25z" fill="#433F3F" p-id="1999"></path></svg>